<?xml version="1.0" encoding="UTF-8"?>
<svg version="1.1" xmlns="http://www.w3.org/2000/svg" width="512" height="512">
<path d="M0 0 C168.96 0 337.92 0 512 0 C512 168.96 512 337.92 512 512 C343.04 512 174.08 512 0 512 C0 343.04 0 174.08 0 0 Z " fill="#FEFEFE" transform="translate(0,0)"/>
<path d="M0 0 C2.26665442 6.44533674 4.07278708 12.92649966 5.6875 19.5625 C6.20808181 21.67454118 6.72893002 23.78651671 7.25 25.8984375 C7.5284375 27.03120117 7.806875 28.16396484 8.09375 29.33105469 C9.07377204 33.29866546 10.0663315 37.26298247 11.0625 41.2265625 C11.41837852 42.64379811 11.77425417 44.06103444 12.13012695 45.47827148 C12.65201855 47.55635436 13.1741298 49.63438029 13.69711304 51.71218872 C20 76.76760046 20 76.76760046 20 81 C21.010625 80.67 22.02125 80.34 23.0625 80 C30.94721712 78.06044392 40.52922272 77.27605313 47.9375 81 C48.948125 81.66 49.95875 82.32 51 83 C49.97223865 87.41937379 48.55457044 90.06272272 44.90234375 92.83984375 C39.08878612 96.38527828 32.50995149 98.18679879 26 100 C26.20753906 100.81855469 26.41507812 101.63710937 26.62890625 102.48046875 C30.19185707 116.62791781 33.6333544 130.80461227 37 145 C37.29793457 146.25135742 37.59586914 147.50271484 37.90283203 148.79199219 C38.76091205 152.42090613 39.60197264 156.05333464 40.4375 159.6875 C40.82591064 161.32392456 40.82591064 161.32392456 41.22216797 162.9934082 C42.68056807 169.43709432 43.33910322 175.39529861 43 182 C40.00742182 183.55375512 37.38177942 184.48057903 34.0625 185.125 C33.22847656 185.29257812 32.39445312 185.46015625 31.53515625 185.6328125 C28.98541981 186.00211177 26.57240933 186.06442528 24 186 C20.46515588 177.98551472 17.50955303 169.84805368 14.66235352 161.57055664 C12.86626387 156.38190731 10.96154249 151.26595061 8.875 146.1875 C6.41350209 140.15748132 4.31451627 134.06707119 2.30078125 127.875 C0.08888017 121.17163859 -2.47932325 114.59187288 -5 108 C-12.8012024 107.80132272 -20.27637475 108.37028957 -28 109.4375 C-35.65791027 110.46610106 -43.29853911 111.36421257 -51 112 C-50.855625 112.97839844 -50.71125 113.95679688 -50.5625 114.96484375 C-47.80279714 134.20419571 -47.80279714 134.20419571 -51 139 C-53.3828125 139.29296875 -53.3828125 139.29296875 -56.125 139.1875 C-57.03507812 139.16042969 -57.94515625 139.13335937 -58.8828125 139.10546875 C-59.58148438 139.07066406 -60.28015625 139.03585938 -61 139 C-61.96087136 137.10545176 -62.91858969 135.20930419 -63.875 133.3125 C-64.40867187 132.25675781 -64.94234375 131.20101562 -65.4921875 130.11328125 C-68.07335488 124.78377244 -69.44284391 121.90254326 -68 116 C-67.505 115.01 -67.505 115.01 -67 114 C-68.65 114 -70.3 114 -72 114 C-71.01 112.68 -70.02 111.36 -69 110 C-69.27714844 109.46890625 -69.55429687 108.9378125 -69.83984375 108.390625 C-70.38318359 107.33101562 -70.38318359 107.33101562 -70.9375 106.25 C-71.47697266 105.20585937 -71.47697266 105.20585937 -72.02734375 104.140625 C-73.87349001 100.07762038 -74.2076807 96.38956176 -74.3125 91.9375 C-74.34988281 90.89464844 -74.38726562 89.85179687 -74.42578125 88.77734375 C-74 86 -74 86 -72.21484375 84.171875 C-69.21082582 82.58244752 -66.35586256 82.32267909 -63 82 C-59.78595957 86.4227394 -57.8750574 90.54777224 -56.25 95.75 C-56.02957031 96.42160156 -55.80914062 97.09320313 -55.58203125 97.78515625 C-54 102.6884705 -54 102.6884705 -54 105 C-51.96733989 104.28856896 -49.93469274 103.57710089 -47.90209961 102.86547852 C-46.11927179 102.2416611 -44.33622773 101.61846138 -42.55297852 100.99584961 C-37.80484612 99.3370643 -33.06081649 97.66802843 -28.32421875 95.9765625 C-27.4209082 95.6556665 -26.51759766 95.33477051 -25.58691406 95.00415039 C-23.84403697 94.38469988 -22.10245559 93.76158952 -20.36230469 93.13452148 C-19.57114258 92.85423096 -18.77998047 92.57394043 -17.96484375 92.28515625 C-17.2699585 92.03644775 -16.57507324 91.78773926 -15.85913086 91.53149414 C-14 91 -14 91 -11 91 C-11.3074354 87.58285781 -11.62183088 84.16639063 -11.9375 80.75 C-12.02451172 79.78191406 -12.11152344 78.81382812 -12.20117188 77.81640625 C-12.33168945 76.41455078 -12.33168945 76.41455078 -12.46484375 74.984375 C-12.543396 74.12553711 -12.62194824 73.26669922 -12.70288086 72.38183594 C-12.97750616 70.18032036 -13.449551 68.14491069 -14 66 C-14.26792033 62.69990196 -14.44290025 59.39980818 -14.62109375 56.09375 C-14.86341043 52.80203599 -15.39298789 49.60473712 -15.96875 46.35546875 C-17.08997515 39.85978012 -17.61921286 33.38471369 -18.0625 26.8125 C-18.57462531 19.52000493 -19.13372734 12.25982485 -20 5 C-18.02930249 4.26516364 -16.05837667 3.53092978 -14.0859375 2.80078125 C-12.51261821 2.19679163 -10.96656391 1.52109059 -9.4375 0.8125 C-6.23442586 -0.25519138 -3.35062176 -0.13139693 0 0 Z " fill="#F4B324" transform="translate(437,89)"/>
<path d="M0 0 C-2.74468409 2.74468409 -5.62745154 2.80220502 -9.3203125 3.375 C-10.88400245 3.63454118 -12.44755412 3.89491652 -14.01098633 4.15600586 C-14.84288483 4.29263641 -15.67478333 4.42926697 -16.53189087 4.57003784 C-47.20856803 9.6565227 -77.51445988 17.09433974 -107 27 C-108.10633789 27.37060547 -109.21267578 27.74121094 -110.35253906 28.12304688 C-152.63490023 42.43546538 -192.9524964 61.46936924 -230.125 86.1875 C-231.16820404 86.87995316 -231.16820404 86.87995316 -232.23248291 87.58639526 C-241.44050541 93.71775967 -250.3214445 100.13751818 -259 107 C-259.95237549 107.75055664 -260.90475098 108.50111328 -261.88598633 109.27441406 C-270.00957179 115.72228592 -277.50296646 122.84567519 -285 130 C-285.79792969 130.75539063 -286.59585938 131.51078125 -287.41796875 132.2890625 C-292.7599613 137.47111515 -297.42409791 143.13781848 -302 149 C-302.43747559 149.55574707 -302.87495117 150.11149414 -303.32568359 150.68408203 C-313.32262762 163.47434209 -321.75750163 177.19504494 -326 193 C-326.35320312 194.20011719 -326.70640625 195.40023437 -327.0703125 196.63671875 C-329.86565775 208.02610674 -329.95420923 223.05716763 -324.5546875 233.56640625 C-321.95999832 237.62794232 -319.16303155 241.3652883 -316 245 C-315.4121875 245.69609375 -314.824375 246.3921875 -314.21875 247.109375 C-312.82631418 248.75139837 -311.41527054 250.3776167 -310 252 C-320.50148361 248.16787967 -327.5298945 240.256634 -332.28515625 230.3125 C-338.8740757 214.44241445 -337.76886254 194.95362963 -332 179 C-331.61457031 177.87464844 -331.22914063 176.74929688 -330.83203125 175.58984375 C-320.49956931 147.00002189 -298.77532537 122.55345007 -276 103 C-274.97993992 102.10476888 -273.96045192 101.20888566 -272.94140625 100.3125 C-235.70036669 67.72996807 -191.66419037 43.18290192 -145 27 C-144.22785156 26.73203613 -143.45570313 26.46407227 -142.66015625 26.18798828 C-132.85837056 22.80996023 -123.00687881 19.71949148 -113 17 C-112.28231445 16.80019531 -111.56462891 16.60039062 -110.82519531 16.39453125 C-100.42716552 13.50253814 -90.08501001 11.05864371 -79.42236328 9.38134766 C-76.78888088 8.96676395 -74.15831146 8.53570989 -71.52734375 8.10546875 C-58.78872782 6.05606456 -46.01430246 4.27322172 -33.22247314 2.59222412 C-31.51084158 2.36671203 -29.79952641 2.13878344 -28.08856201 1.90826416 C-18.68311291 0.64605903 -9.51630678 -0.38206734 0 0 Z " fill="#073869" transform="translate(343,130)"/>
<path d="M0 0 C-3.36050709 2.24033806 -6.69306002 3.29198354 -10.5078125 4.46875 C-12.05597373 4.95697256 -13.60398192 5.4456806 -15.15185547 5.93481445 C-15.96378357 6.18993805 -16.77571167 6.44506165 -17.61224365 6.70791626 C-33.71725766 11.78462007 -49.48775659 17.29466792 -65 24 C-65.6899707 24.29648438 -66.37994141 24.59296875 -67.09082031 24.8984375 C-71.46122138 26.79959592 -75.7397897 28.86650527 -80 31 C-80.88026855 31.43618652 -81.76053711 31.87237305 -82.66748047 32.32177734 C-105.17338043 43.53194044 -126.41365011 56.19538955 -146 72 C-147.010625 72.79921875 -148.02125 73.5984375 -149.0625 74.421875 C-155.99010058 79.97182774 -162.57466737 85.88036602 -169 92 C-169.898396 92.85537354 -169.898396 92.85537354 -170.81494141 93.72802734 C-191.25589303 113.33551565 -209.81278767 136.42851758 -212.31640625 165.69921875 C-212.53170784 178.05753009 -209.27475116 187.80583205 -201 197 C-209.44339015 193.24738215 -213.5633759 186.60257786 -217.1484375 178.359375 C-220.66633301 164.48143857 -218.65490978 148.98522452 -213 136 C-212.71592285 135.3395166 -212.4318457 134.6790332 -212.13916016 133.99853516 C-205.29625607 118.49166146 -195.12534646 105.64262708 -184 93 C-183.19175781 92.07960938 -182.38351563 91.15921875 -181.55078125 90.2109375 C-174.76100798 82.57964734 -167.84698368 75.71782249 -159.875 69.31640625 C-158.0240034 67.82504622 -156.18909151 66.31338254 -154.375 64.77734375 C-146.97815476 58.53625558 -139.15604519 53.18222564 -131 48 C-130.41798828 47.62907227 -129.83597656 47.25814453 -129.23632812 46.87597656 C-96.05929876 25.91909025 -59.92698089 12.06881377 -21.875 3 C-20.61179932 2.69666748 -19.34859863 2.39333496 -18.04711914 2.08081055 C-11.89513238 0.66789221 -6.31456804 -0.37792926 0 0 Z " fill="#0A3A6B" transform="translate(320,194)"/>
<path d="M0 0 C-3.56388248 2.37592166 -7.02013833 3.10410709 -11.125 4.0625 C-62.98026006 16.64311791 -119.09637981 33.90952262 -157.3359375 73.38671875 C-160 76 -160 76 -162 76 C-162.38478516 76.88558594 -162.38478516 76.88558594 -162.77734375 77.7890625 C-164.1116579 80.20191173 -165.51229854 81.54431506 -167.5625 83.375 C-177.87212777 93.47918229 -188.97985945 111.37379377 -189.3125 126.0625 C-189.25759788 134.26121644 -187.07797883 140.58341357 -182 147 C-182.495 147.99 -182.495 147.99 -183 149 C-190.24233178 141.71698097 -194.08498481 134.89229225 -194.625 124.5 C-193.96007796 104.10905749 -182.32005659 86.55958919 -169 72 C-168.34386719 71.27296875 -167.68773437 70.5459375 -167.01171875 69.796875 C-160.99264853 63.45558475 -153.96398074 58.24726982 -147 53 C-146.44570312 52.57960449 -145.89140625 52.15920898 -145.3203125 51.72607422 C-124.4089091 35.97373416 -101.44864751 24.16273636 -77 15 C-76.27119629 14.72414063 -75.54239258 14.44828125 -74.79150391 14.1640625 C-51.65202789 5.53415407 -24.80149676 -0.76837684 0 0 Z " fill="#11406F" transform="translate(382,255)"/>
<path d="M0 0 C-2.72528885 2.72528885 -5.65644017 2.94188491 -9.3125 3.625 C-9.97701172 3.7590625 -10.64152344 3.893125 -11.32617188 4.03125 C-14.93008074 4.72993065 -18.32959742 5.15618734 -22 5 C-22 4.34 -22 3.68 -22 3 C-23.32 2.67 -24.64 2.34 -26 2 C-17.26047454 0.55203128 -8.86088167 -0.29211698 0 0 Z " fill="#345D85" transform="translate(343,130)"/>
<path d="M0 0 C0.33 0 0.66 0 1 0 C1.08636719 0.82242187 1.17273438 1.64484375 1.26171875 2.4921875 C2.134404 9.42563181 3.48498285 14.90161756 6.9765625 20.9765625 C8 23 8 23 8 26 C3.01935113 20.9920599 -1.10123477 16.21441278 -2 9 C-1.6672395 5.87205132 -0.98087877 2.9849764 0 0 Z " fill="#234F7A" transform="translate(191,378)"/>
<path d="M0 0 C1.96293766 1.96293766 2.68347281 3.27094455 3.8125 5.75 C5.73495154 9.72548469 8.05221481 12.72468313 11 16 C4.09676354 12.93189491 0.64131893 8.38392936 -3 2 C-2.01 1.34 -1.02 0.68 0 0 Z " fill="#194775" transform="translate(108,375)"/>
<path d="M0 0 C-3.2740126 2.18267507 -6.11207471 3.12032687 -9.875 4.25 C-11.08929688 4.62640625 -12.30359375 5.0028125 -13.5546875 5.390625 C-17.2388853 6.04225182 -18.76044565 5.74911299 -22 4 C-22 3.67 -22 3.34 -22 3 C-7.40318907 -0.44419134 -7.40318907 -0.44419134 0 0 Z " fill="#224E7A" transform="translate(320,194)"/>
<path d="M0 0 C4.29 0 8.58 0 13 0 C13 0.66 13 1.32 13 2 C9.7 2.66 6.4 3.32 3 4 C3.33 3.01 3.66 2.02 4 1 C2.68 0.67 1.36 0.34 0 0 Z " fill="#194774" transform="translate(308,133)"/>
<path d="M0 0 C0.33 0 0.66 0 1 0 C1.33 4.29 1.66 8.58 2 13 C1.01 13.33 0.02 13.66 -1 14 C-2.59789351 9.04653013 -1.28306814 4.86717585 0 0 Z " fill="#1C4976" transform="translate(191,378)"/>
<path d="M0 0 C2.6875 -0.3125 2.6875 -0.3125 5 0 C3.86525052 3.40424844 3.03188696 4.21653709 0 6 C-0.99 5.67 -1.98 5.34 -3 5 C-1.8125 2.5 -1.8125 2.5 0 0 Z " fill="#194772" transform="translate(243,307)"/>
<path d="M0 0 C2.31 1.98 4.62 3.96 7 6 C6.01 6.495 6.01 6.495 5 7 C3.02 5.68 1.04 4.36 -1 3 C-0.67 2.01 -0.34 1.02 0 0 Z " fill="#396088" transform="translate(26,375)"/>
<path d="M0 0 C-2.97180967 1.98120645 -4.51116436 2.65962579 -8 3 C-10.3125 2.0625 -10.3125 2.0625 -12 1 C-8.0186217 -0.3271261 -4.14954773 -0.06915913 0 0 Z " fill="#607F9F" transform="translate(320,194)"/>
<path d="M0 0 C2.64752004 2.57784846 4.94432065 4.91648098 7 8 C3.63408134 6.55746343 1.48952921 4.66735273 -1 2 C-0.67 1.34 -0.34 0.68 0 0 Z " fill="#486C91" transform="translate(112,383)"/>
</svg>
